<?xml version="1.0" encoding="UTF-8"?>
<svg width="43px" height="31px" viewBox="0 0 43 31" version="1.1" xmlns="http://www.w3.org/2000/svg" xmlns:xlink="http://www.w3.org/1999/xlink">
    <!-- Generator: Sketch 52.2 (67145) - http://www.bohemiancoding.com/sketch -->
    <title>‘‘</title>
    <desc>Created with Sketch.</desc>
    <g id="Symbols" stroke="none" stroke-width="1" fill="none" fill-rule="evenodd">
        <g id="underline" transform="translate(-30.000000, -70.000000)" fill="#067CFF">
            <path d="M46.6486623,75.2043796 C44.2030838,75.9586412 42.3375744,77.0711605 41.0520781,78.5419708 C39.7665817,80.0127811 39.1865494,81.7664132 39.3119636,83.8029197 C40.1271564,85.0097384 41.1461322,85.9714076 42.3689214,86.6879562 C43.5917106,87.4045048 44.8928642,88.0267614 46.2724213,88.5547445 C46.585957,89.9124155 46.6329867,91.2889225 46.4135117,92.6843066 C46.1940367,94.0796907 45.7707698,95.3619163 45.1436984,96.5310219 C44.516627,97.7001275 43.7798292,98.6995092 42.9332828,99.5291971 C42.0867364,100.358885 41.2245262,100.849148 40.3466263,101 C39.0297763,100.924574 37.7442993,100.604017 36.4901565,100.038321 C35.2360137,99.4726249 34.1386552,98.6618058 33.1980481,97.6058394 C32.257441,96.5498731 31.4892901,95.2865037 30.8935723,93.8156934 C30.2978544,92.3448832 30,90.6666761 30,88.7810219 C30,86.5182369 30.3762372,84.3497671 31.1287229,82.2755474 C31.8812085,80.2013278 32.9315374,78.3345582 34.2797409,76.6751825 C35.6279444,75.0158068 37.242629,73.6015874 39.1238432,72.4324818 C41.0050573,71.2633761 43.0743619,70.452557 45.3318189,70 L46.6486623,75.2043796 Z M73,75.2043796 C70.5544216,75.9586412 68.6889122,77.0711605 67.4034158,78.5419708 C66.1179194,80.0127811 65.5378871,81.7664132 65.6633014,83.8029197 C66.4784942,85.0097384 67.4974699,85.9714076 68.7202591,86.6879562 C69.9430484,87.4045048 71.244202,88.0267614 72.623759,88.5547445 C72.9372947,89.9124155 72.9843244,91.2889225 72.7648494,92.6843066 C72.5453744,94.0796907 72.1221076,95.3619163 71.4950362,96.5310219 C70.8679648,97.7001275 70.131167,98.6995092 69.2846206,99.5291971 C68.4380742,100.358885 67.575864,100.849148 66.697964,101 C65.3811141,100.924574 64.095637,100.604017 62.8414942,100.038321 C61.5873514,99.4726249 60.4899929,98.6618058 59.5493859,97.6058394 C58.6087788,96.5498731 57.8406278,95.2865037 57.24491,93.8156934 C56.6491922,92.3448832 56.3513377,90.6666761 56.3513377,88.7810219 C56.3513377,86.5182369 56.7275749,84.3497671 57.4800606,82.2755474 C58.2325463,80.2013278 59.2828751,78.3345582 60.6310786,76.6751825 C61.9792821,75.0158068 63.5939667,73.6015874 65.4751809,72.4324818 C67.3563951,71.2633761 69.4256996,70.452557 71.6831567,70 L73,75.2043796 Z" id="‘‘"></path>
        </g>
    </g>
</svg>