<?xml version="1.0" encoding="UTF-8"?>
<svg width="124px" height="15px" viewBox="0 0 124 15" version="1.1" xmlns="http://www.w3.org/2000/svg" xmlns:xlink="http://www.w3.org/1999/xlink">
    <!-- Generator: Sketch 51.3 (57544) - http://www.bohemiancoding.com/sketch -->
    <title>WELLDONE</title>
    <desc>Created with Sketch.</desc>
    <defs></defs>
    <g id="Design" stroke="none" stroke-width="1" fill="none" fill-rule="evenodd">
        <g id="signup" transform="translate(-928.000000, -163.000000)" fill="#067CFF">
            <path d="M928,163.7 L932.9,163.7 L934.88,170.42 L937.14,163.66 L941.18,163.66 L943.44,170.42 L945.42,163.7 L950.24,163.7 L945.66,177.8 L941.58,177.8 L939.12,170.84 L936.66,177.8 L932.58,177.8 L928,163.7 Z M951.59,163.7 L963.53,163.7 L963.53,167.54 L956.19,167.54 L956.19,168.96 L963.03,168.96 L963.03,172.34 L956.19,172.34 L956.19,173.86 L963.63,173.86 L963.63,177.7 L951.59,177.7 L951.59,163.7 Z M965.44,163.7 L970.12,163.7 L970.12,173.7 L976.7,173.7 L976.7,177.7 L965.44,177.7 L965.44,163.7 Z M978.27,163.7 L982.95,163.7 L982.95,173.7 L989.53,173.7 L989.53,177.7 L978.27,177.7 L978.27,163.7 Z M996.56,173.62 C997.640005,173.62 998.496664,173.390002 999.13,172.93 C999.763337,172.469998 1000.08,171.733338 1000.08,170.72 L1000.08,170.68 C1000.08,169.666662 999.763337,168.930002 999.13,168.47 C998.496664,168.009998 997.640005,167.78 996.56,167.78 L995.78,167.78 L995.78,173.62 L996.56,173.62 Z M991.1,163.7 L996.46,163.7 C997.846674,163.7 999.063328,163.863332 1000.11,164.19 C1001.15667,164.516668 1002.02666,164.979997 1002.72,165.58 C1003.41334,166.180003 1003.93333,166.903329 1004.28,167.75 C1004.62667,168.596671 1004.8,169.539995 1004.8,170.58 L1004.8,170.62 C1004.8,171.660005 1004.62334,172.613329 1004.27,173.48 C1003.91666,174.346671 1003.38334,175.09333 1002.67,175.72 C1001.95666,176.34667 1001.07001,176.833332 1000.01,177.18 C998.949995,177.526668 997.71334,177.7 996.3,177.7 L991.1,177.7 L991.1,163.7 Z M1013.97,173.86 C1014.41,173.86 1014.81,173.773334 1015.17,173.6 C1015.53,173.426666 1015.83667,173.196668 1016.09,172.91 C1016.34333,172.623332 1016.53667,172.293335 1016.67,171.92 C1016.80333,171.546665 1016.87,171.153335 1016.87,170.74 L1016.87,170.7 C1016.87,170.286665 1016.8,169.890002 1016.66,169.51 C1016.52,169.129998 1016.32333,168.793335 1016.07,168.5 C1015.81667,168.206665 1015.51,167.973334 1015.15,167.8 C1014.79,167.626666 1014.38334,167.54 1013.93,167.54 C1013.49,167.54 1013.09,167.626666 1012.73,167.8 C1012.37,167.973334 1012.06333,168.203332 1011.81,168.49 C1011.55667,168.776668 1011.36333,169.106665 1011.23,169.48 C1011.09667,169.853335 1011.03,170.246665 1011.03,170.66 L1011.03,170.7 C1011.03,171.113335 1011.1,171.509998 1011.24,171.89 C1011.38,172.270002 1011.57667,172.606665 1011.83,172.9 C1012.08333,173.193335 1012.39,173.426666 1012.75,173.6 C1013.11,173.773334 1013.51666,173.86 1013.97,173.86 Z M1013.93,178 C1012.84999,178 1011.84667,177.813335 1010.92,177.44 C1009.99333,177.066665 1009.18667,176.553337 1008.5,175.9 C1007.81333,175.246663 1007.27667,174.476671 1006.89,173.59 C1006.50333,172.703329 1006.31,171.753338 1006.31,170.74 L1006.31,170.7 C1006.31,169.686662 1006.50666,168.736671 1006.9,167.85 C1007.29334,166.963329 1007.83333,166.190003 1008.52,165.53 C1009.20667,164.869997 1010.01666,164.350002 1010.95,163.97 C1011.88334,163.589998 1012.88999,163.4 1013.97,163.4 C1015.05001,163.4 1016.05333,163.586665 1016.98,163.96 C1017.90667,164.333335 1018.71333,164.846663 1019.4,165.5 C1020.08667,166.153337 1020.62333,166.923329 1021.01,167.81 C1021.39667,168.696671 1021.59,169.646662 1021.59,170.66 L1021.59,170.7 C1021.59,171.713338 1021.39334,172.663329 1021,173.55 C1020.60666,174.436671 1020.06667,175.209997 1019.38,175.87 C1018.69333,176.530003 1017.88334,177.049998 1016.95,177.43 C1016.01666,177.810002 1015.01001,178 1013.93,178 Z M1023.42,163.7 L1027.8,163.7 L1032.78,169.88 L1032.78,163.7 L1037.42,163.7 L1037.42,177.7 L1033.26,177.7 L1028.06,171.24 L1028.06,177.7 L1023.42,177.7 L1023.42,163.7 Z M1039.57,163.7 L1051.51,163.7 L1051.51,167.54 L1044.17,167.54 L1044.17,168.96 L1051.01,168.96 L1051.01,172.34 L1044.17,172.34 L1044.17,173.86 L1051.61,173.86 L1051.61,177.7 L1039.57,177.7 L1039.57,163.7 Z" id="WELLDONE"></path>
        </g>
    </g>
</svg>