<?xml version="1.0" encoding="UTF-8"?>
<svg width="137px" height="32px" viewBox="0 0 137 32" version="1.1" xmlns="http://www.w3.org/2000/svg" xmlns:xlink="http://www.w3.org/1999/xlink">
    <!-- Generator: Sketch 51.3 (57544) - http://www.bohemiancoding.com/sketch -->
    <title>Group Copy</title>
    <desc>Created with Sketch.</desc>
    <defs>
        <polygon id="path-1" points="3 8.04526167 8.50809353 8.04526167 10.7338129 15.6492221 13.2742806 8 17.8156475 8 20.3561151 15.6492221 22.5818345 8.04526167 28 8.04526167 22.8516187 24 18.2652878 24 15.5 16.1244696 12.7347122 24 8.14838129 24"></polygon>
        <filter x="-22.0%" y="-34.4%" width="152.0%" height="181.2%" filterUnits="objectBoundingBox" id="filter-2">
            <feOffset dx="1" dy="1" in="SourceAlpha" result="shadowOffsetOuter1"></feOffset>
            <feGaussianBlur stdDeviation="2" in="shadowOffsetOuter1" result="shadowBlurOuter1"></feGaussianBlur>
            <feColorMatrix values="0 0 0 0 0   0 0 0 0 0   0 0 0 0 0  0 0 0 0.1856601 0" type="matrix" in="shadowBlurOuter1"></feColorMatrix>
        </filter>
        <filter x="-18.0%" y="-28.1%" width="144.0%" height="168.8%" filterUnits="objectBoundingBox" id="filter-3">
            <feGaussianBlur stdDeviation="1" in="SourceAlpha" result="shadowBlurInner1"></feGaussianBlur>
            <feOffset dx="-1" dy="-1" in="shadowBlurInner1" result="shadowOffsetInner1"></feOffset>
            <feComposite in="shadowOffsetInner1" in2="SourceAlpha" operator="arithmetic" k2="-1" k3="1" result="shadowInnerInner1"></feComposite>
            <feColorMatrix values="0 0 0 0 0   0 0 0 0 0   0 0 0 0 0  0 0 0 0.12463202 0" type="matrix" in="shadowInnerInner1"></feColorMatrix>
        </filter>
    </defs>
    <g id="Symbols" stroke="none" stroke-width="1" fill="none" fill-rule="evenodd">
        <g id="Group-Copy">
            <path d="M36,9.3 L47.94,9.3 L47.94,13.14 L40.6,13.14 L40.6,14.56 L47.44,14.56 L47.44,17.94 L40.6,17.94 L40.6,19.46 L48.04,19.46 L48.04,23.3 L36,23.3 L36,9.3 Z M49.85,9.3 L54.53,9.3 L54.53,19.3 L61.11,19.3 L61.11,23.3 L49.85,23.3 L49.85,9.3 Z M62.68,9.3 L67.36,9.3 L67.36,19.3 L73.94,19.3 L73.94,23.3 L62.68,23.3 L62.68,9.3 Z M80.97,19.22 C82.0500054,19.22 82.9066635,18.9900023 83.54,18.53 C84.1733365,18.0699977 84.49,17.3333384 84.49,16.32 L84.49,16.28 C84.49,15.2666616 84.1733365,14.5300023 83.54,14.07 C82.9066635,13.6099977 82.0500054,13.38 80.97,13.38 L80.19,13.38 L80.19,19.22 L80.97,19.22 Z M75.51,9.3 L80.87,9.3 C82.2566736,9.3 83.4733281,9.4633317 84.52,9.79 C85.5666719,10.1166683 86.4366632,10.579997 87.13,11.18 C87.8233368,11.780003 88.3433316,12.5033291 88.69,13.35 C89.0366684,14.1966709 89.21,15.1399948 89.21,16.18 L89.21,16.22 C89.21,17.2600052 89.0333351,18.213329 88.68,19.08 C88.3266649,19.946671 87.7933369,20.6933302 87.08,21.32 C86.3666631,21.9466698 85.4800053,22.4333316 84.42,22.78 C83.3599947,23.1266684 82.1233404,23.3 80.71,23.3 L75.51,23.3 L75.51,9.3 Z M98.38,19.46 C98.8200022,19.46 99.2199982,19.3733342 99.58,19.2 C99.9400018,19.0266658 100.246665,18.7966681 100.5,18.51 C100.753335,18.2233319 100.946666,17.8933352 101.08,17.52 C101.213334,17.1466648 101.28,16.7533354 101.28,16.34 L101.28,16.3 C101.28,15.8866646 101.210001,15.4900019 101.07,15.11 C100.929999,14.7299981 100.733335,14.3933348 100.48,14.1 C100.226665,13.8066652 99.9200018,13.5733342 99.56,13.4 C99.1999982,13.2266658 98.7933356,13.14 98.34,13.14 C97.8999978,13.14 97.5000018,13.2266658 97.14,13.4 C96.7799982,13.5733342 96.4733346,13.8033319 96.22,14.09 C95.9666654,14.3766681 95.773334,14.7066648 95.64,15.08 C95.506666,15.4533352 95.44,15.8466646 95.44,16.26 L95.44,16.3 C95.44,16.7133354 95.5099993,17.1099981 95.65,17.49 C95.7900007,17.8700019 95.9866654,18.2066652 96.24,18.5 C96.4933346,18.7933348 96.7999982,19.0266658 97.16,19.2 C97.5200018,19.3733342 97.9266644,19.46 98.38,19.46 Z M98.34,23.6 C97.2599946,23.6 96.2566713,23.4133352 95.33,23.04 C94.4033287,22.6666648 93.5966701,22.1533366 92.91,21.5 C92.2233299,20.8466634 91.6866686,20.0766711 91.3,19.19 C90.9133314,18.3033289 90.72,17.3533384 90.72,16.34 L90.72,16.3 C90.72,15.2866616 90.9166647,14.3366711 91.31,13.45 C91.7033353,12.5633289 92.2433299,11.7900033 92.93,11.13 C93.6166701,10.4699967 94.426662,9.9500019 95.36,9.57 C96.293338,9.1899981 97.2999946,9 98.38,9 C99.4600054,9 100.463329,9.1866648 101.39,9.56 C102.316671,9.9333352 103.12333,10.4466634 103.81,11.1 C104.49667,11.7533366 105.033331,12.5233289 105.42,13.41 C105.806669,14.2966711 106,15.2466616 106,16.26 L106,16.3 C106,17.3133384 105.803335,18.2633289 105.41,19.15 C105.016665,20.0366711 104.47667,20.8099967 103.79,21.47 C103.10333,22.1300033 102.293338,22.6499981 101.36,23.03 C100.426662,23.4100019 99.4200054,23.6 98.34,23.6 Z M107.83,9.3 L112.21,9.3 L117.19,15.48 L117.19,9.3 L121.83,9.3 L121.83,23.3 L117.67,23.3 L112.47,16.84 L112.47,23.3 L107.83,23.3 L107.83,9.3 Z M123.98,9.3 L135.92,9.3 L135.92,13.14 L128.58,13.14 L128.58,14.56 L135.42,14.56 L135.42,17.94 L128.58,17.94 L128.58,19.46 L136.02,19.46 L136.02,23.3 L123.98,23.3 L123.98,9.3 Z" id="ELLDONE" fill="#067CFF"></path>
            <rect id="Rectangle-6" fill="#067CFF" x="0" y="0" width="32" height="32" rx="2"></rect>
            <g id="W">
                <use fill="black" fill-opacity="1" filter="url(#filter-2)" xlink:href="#path-1"></use>
                <use fill="#FFFFFF" fill-rule="evenodd" xlink:href="#path-1"></use>
                <use fill="black" fill-opacity="1" filter="url(#filter-3)" xlink:href="#path-1"></use>
            </g>
        </g>
    </g>
</svg>